<?xml version="1.0" encoding="UTF-8" standalone="no"?>
<!DOCTYPE svg PUBLIC "-//W3C//DTD SVG 1.1//EN"
 "http://www.w3.org/Graphics/SVG/1.1/DTD/svg11.dtd">
<!-- Generated by graphviz version 2.43.0 (0)
 -->
<!-- Title: mygraph Pages: 1 -->
<svg width="2085pt" height="404pt"
 viewBox="0.00 0.00 2085.00 404.00" xmlns="http://www.w3.org/2000/svg" xmlns:xlink="http://www.w3.org/1999/xlink">
<g id="graph0" class="graph" transform="scale(1 1) rotate(0) translate(4 400)">
<title>mygraph</title>
<polygon fill="white" stroke="transparent" points="-4,4 -4,-400 2081,-400 2081,4 -4,4"/>
<!-- //tests:integration_test -->
<g id="node1" class="node">
<title>//tests:integration_test</title>
<polygon fill="none" stroke="black" points="191,-396 12,-396 12,-360 191,-360 191,-396"/>
<text text-anchor="middle" x="101.5" y="-374.3" font-family="Times,serif" font-size="14.00">//tests:integration_test</text>
</g>
<!-- //go/cmd/server:go&#45;server -->
<g id="node2" class="node">
<title>//go/cmd/server:go&#45;server</title>
<polygon fill="none" stroke="black" points="201.5,-324 1.5,-324 1.5,-288 201.5,-288 201.5,-324"/>
<text text-anchor="middle" x="101.5" y="-302.3" font-family="Times,serif" font-size="14.00">//go/cmd/server:go&#45;server</text>
</g>
<!-- //tests:integration_test&#45;&gt;//go/cmd/server:go&#45;server -->
<g id="edge1" class="edge">
<title>//tests:integration_test&#45;&gt;//go/cmd/server:go&#45;server</title>
<path fill="none" stroke="black" d="M101.5,-359.7C101.5,-351.98 101.5,-342.71 101.5,-334.11"/>
<polygon fill="black" stroke="black" points="105,-334.1 101.5,-324.1 98,-334.1 105,-334.1"/>
</g>
<!-- //java/src/main/java/bazel/bootcamp:JavaLoggingClient -->
<g id="node3" class="node">
<title>//java/src/main/java/bazel/bootcamp:JavaLoggingClient</title>
<polygon fill="none" stroke="black" points="625.5,-324 219.5,-324 219.5,-288 625.5,-288 625.5,-324"/>
<text text-anchor="middle" x="422.5" y="-302.3" font-family="Times,serif" font-size="14.00">//java/src/main/java/bazel/bootcamp:JavaLoggingClient</text>
</g>
<!-- //tests:integration_test&#45;&gt;//java/src/main/java/bazel/bootcamp:JavaLoggingClient -->
<g id="edge2" class="edge">
<title>//tests:integration_test&#45;&gt;//java/src/main/java/bazel/bootcamp:JavaLoggingClient</title>
<path fill="none" stroke="black" d="M179.61,-359.97C226.41,-349.76 286.01,-336.76 334.47,-326.2"/>
<polygon fill="black" stroke="black" points="335.29,-329.6 344.31,-324.05 333.8,-322.76 335.29,-329.6"/>
</g>
<!-- //go/cmd/server:server_lib -->
<g id="node4" class="node">
<title>//go/cmd/server:server_lib</title>
<polygon fill="none" stroke="black" points="203,-252 0,-252 0,-216 203,-216 203,-252"/>
<text text-anchor="middle" x="101.5" y="-230.3" font-family="Times,serif" font-size="14.00">//go/cmd/server:server_lib</text>
</g>
<!-- //go/cmd/server:go&#45;server&#45;&gt;//go/cmd/server:server_lib -->
<g id="edge3" class="edge">
<title>//go/cmd/server:go&#45;server&#45;&gt;//go/cmd/server:server_lib</title>
<path fill="none" stroke="black" d="M101.5,-287.7C101.5,-279.98 101.5,-270.71 101.5,-262.11"/>
<polygon fill="black" stroke="black" points="105,-262.1 101.5,-252.1 98,-262.1 105,-262.1"/>
</g>
<!-- //proto/logger:logger_go_proto -->
<g id="node5" class="node">
<title>//proto/logger:logger_go_proto</title>
<polygon fill="none" stroke="black" points="348,-180 115,-180 115,-144 348,-144 348,-180"/>
<text text-anchor="middle" x="231.5" y="-158.3" font-family="Times,serif" font-size="14.00">//proto/logger:logger_go_proto</text>
</g>
<!-- //go/cmd/server:go&#45;server&#45;&gt;//proto/logger:logger_go_proto -->
<g id="edge4" class="edge">
<title>//go/cmd/server:go&#45;server&#45;&gt;//proto/logger:logger_go_proto</title>
<path fill="none" stroke="black" d="M160.71,-287.94C179.43,-279.84 198.58,-268.27 211.5,-252 225.32,-234.61 230,-209.56 231.41,-190.46"/>
<polygon fill="black" stroke="black" points="234.91,-190.44 231.89,-180.28 227.92,-190.1 234.91,-190.44"/>
</g>
<!-- //java/src/main/java/bazel/bootcamp:JavaLoggingClientLibrary -->
<g id="node7" class="node">
<title>//java/src/main/java/bazel/bootcamp:JavaLoggingClientLibrary</title>
<polygon fill="none" stroke="black" points="854.5,-252 396.5,-252 396.5,-216 854.5,-216 854.5,-252"/>
<text text-anchor="middle" x="625.5" y="-230.3" font-family="Times,serif" font-size="14.00">//java/src/main/java/bazel/bootcamp:JavaLoggingClientLibrary</text>
</g>
<!-- //java/src/main/java/bazel/bootcamp:JavaLoggingClient&#45;&gt;//java/src/main/java/bazel/bootcamp:JavaLoggingClientLibrary -->
<g id="edge8" class="edge">
<title>//java/src/main/java/bazel/bootcamp:JavaLoggingClient&#45;&gt;//java/src/main/java/bazel/bootcamp:JavaLoggingClientLibrary</title>
<path fill="none" stroke="black" d="M471.9,-287.97C500.39,-278.14 536.39,-265.73 566.37,-255.39"/>
<polygon fill="black" stroke="black" points="567.57,-258.68 575.88,-252.11 565.28,-252.06 567.57,-258.68"/>
</g>
<!-- //go/cmd/server:server_lib&#45;&gt;//proto/logger:logger_go_proto -->
<g id="edge6" class="edge">
<title>//go/cmd/server:server_lib&#45;&gt;//proto/logger:logger_go_proto</title>
<path fill="none" stroke="black" d="M133.3,-215.88C150.61,-206.55 172.22,-194.92 190.76,-184.94"/>
<polygon fill="black" stroke="black" points="192.43,-188.01 199.58,-180.19 189.11,-181.85 192.43,-188.01"/>
</g>
<!-- //proto/logger:logger_proto -->
<g id="node18" class="node">
<title>//proto/logger:logger_proto</title>
<polygon fill="none" stroke="black" points="726,-36 517,-36 517,0 726,0 726,-36"/>
<text text-anchor="middle" x="621.5" y="-14.3" font-family="Times,serif" font-size="14.00">//proto/logger:logger_proto</text>
</g>
<!-- //proto/logger:logger_go_proto&#45;&gt;//proto/logger:logger_proto -->
<g id="edge18" class="edge">
<title>//proto/logger:logger_go_proto&#45;&gt;//proto/logger:logger_proto</title>
<path fill="none" stroke="black" d="M278.54,-143.87C350.53,-117.66 487.76,-67.69 565.02,-39.56"/>
<polygon fill="black" stroke="black" points="566.39,-42.79 574.59,-36.08 564,-36.21 566.39,-42.79"/>
</g>
<!-- //java/src/main/java/bazel/bootcamp:JavaLoggingClientLibraryTest -->
<g id="node6" class="node">
<title>//java/src/main/java/bazel/bootcamp:JavaLoggingClientLibraryTest</title>
<polygon fill="none" stroke="black" points="1131.5,-324 643.5,-324 643.5,-288 1131.5,-288 1131.5,-324"/>
<text text-anchor="middle" x="887.5" y="-302.3" font-family="Times,serif" font-size="14.00">//java/src/main/java/bazel/bootcamp:JavaLoggingClientLibraryTest</text>
</g>
<!-- //java/src/main/java/bazel/bootcamp:JavaLoggingClientLibraryTest&#45;&gt;//java/src/main/java/bazel/bootcamp:JavaLoggingClientLibrary -->
<g id="edge5" class="edge">
<title>//java/src/main/java/bazel/bootcamp:JavaLoggingClientLibraryTest&#45;&gt;//java/src/main/java/bazel/bootcamp:JavaLoggingClientLibrary</title>
<path fill="none" stroke="black" d="M823.74,-287.97C786.18,-277.93 738.5,-265.19 699.31,-254.72"/>
<polygon fill="black" stroke="black" points="700.11,-251.31 689.54,-252.11 698.3,-258.07 700.11,-251.31"/>
</g>
<!-- //proto/logger:logger_java_grpc -->
<g id="node19" class="node">
<title>//proto/logger:logger_java_grpc</title>
<polygon fill="none" stroke="black" points="669,-180 430,-180 430,-144 669,-144 669,-180"/>
<text text-anchor="middle" x="549.5" y="-158.3" font-family="Times,serif" font-size="14.00">//proto/logger:logger_java_grpc</text>
</g>
<!-- //java/src/main/java/bazel/bootcamp:JavaLoggingClientLibrary&#45;&gt;//proto/logger:logger_java_grpc -->
<g id="edge19" class="edge">
<title>//java/src/main/java/bazel/bootcamp:JavaLoggingClientLibrary&#45;&gt;//proto/logger:logger_java_grpc</title>
<path fill="none" stroke="black" d="M606.71,-215.7C597.33,-207.05 585.82,-196.45 575.59,-187.03"/>
<polygon fill="black" stroke="black" points="577.8,-184.3 568.07,-180.1 573.05,-189.45 577.8,-184.3"/>
</g>
<!-- //proto/logger:logger_java_proto -->
<g id="node20" class="node">
<title>//proto/logger:logger_java_proto</title>
<polygon fill="none" stroke="black" points="820,-108 575,-108 575,-72 820,-72 820,-108"/>
<text text-anchor="middle" x="697.5" y="-86.3" font-family="Times,serif" font-size="14.00">//proto/logger:logger_java_proto</text>
</g>
<!-- //java/src/main/java/bazel/bootcamp:JavaLoggingClientLibrary&#45;&gt;//proto/logger:logger_java_proto -->
<g id="edge20" class="edge">
<title>//java/src/main/java/bazel/bootcamp:JavaLoggingClientLibrary&#45;&gt;//proto/logger:logger_java_proto</title>
<path fill="none" stroke="black" d="M647.15,-215.99C657.82,-206.5 669.98,-193.81 677.5,-180 687.94,-160.81 692.94,-136.47 695.33,-118.09"/>
<polygon fill="black" stroke="black" points="698.82,-118.37 696.45,-108.04 691.86,-117.59 698.82,-118.37"/>
</g>
<!-- //java/src/main/java/bazel/bootcamp:HelloBazelBootcamp -->
<g id="node8" class="node">
<title>//java/src/main/java/bazel/bootcamp:HelloBazelBootcamp</title>
<polygon fill="none" stroke="black" points="2077,-396 1654,-396 1654,-360 2077,-360 2077,-396"/>
<text text-anchor="middle" x="1865.5" y="-374.3" font-family="Times,serif" font-size="14.00">//java/src/main/java/bazel/bootcamp:HelloBazelBootcamp</text>
</g>
<!-- //java/src/main/java/bazel/bootcamp:JavaLoggingClientTest -->
<g id="node9" class="node">
<title>//java/src/main/java/bazel/bootcamp:JavaLoggingClientTest</title>
<polygon fill="none" stroke="black" points="645.5,-396 209.5,-396 209.5,-360 645.5,-360 645.5,-396"/>
<text text-anchor="middle" x="427.5" y="-374.3" font-family="Times,serif" font-size="14.00">//java/src/main/java/bazel/bootcamp:JavaLoggingClientTest</text>
</g>
<!-- //java/src/main/java/bazel/bootcamp:JavaLoggingClientTest&#45;&gt;//java/src/main/java/bazel/bootcamp:JavaLoggingClient -->
<g id="edge7" class="edge">
<title>//java/src/main/java/bazel/bootcamp:JavaLoggingClientTest&#45;&gt;//java/src/main/java/bazel/bootcamp:JavaLoggingClient</title>
<path fill="none" stroke="black" d="M426.26,-359.7C425.71,-351.98 425.05,-342.71 424.44,-334.11"/>
<polygon fill="black" stroke="black" points="427.93,-333.83 423.72,-324.1 420.94,-334.33 427.93,-333.83"/>
</g>
<!-- //typescript:devserver.MF -->
<g id="node10" class="node">
<title>//typescript:devserver.MF</title>
<polygon fill="none" stroke="black" points="1385,-396 1184,-396 1184,-360 1385,-360 1385,-396"/>
<text text-anchor="middle" x="1284.5" y="-374.3" font-family="Times,serif" font-size="14.00">//typescript:devserver.MF</text>
</g>
<!-- //typescript:devserver_launcher.MF -->
<g id="node11" class="node">
<title>//typescript:devserver_launcher.MF</title>
<polygon fill="none" stroke="black" points="1419.5,-324 1149.5,-324 1149.5,-288 1419.5,-288 1419.5,-324"/>
<text text-anchor="middle" x="1284.5" y="-302.3" font-family="Times,serif" font-size="14.00">//typescript:devserver_launcher.MF</text>
</g>
<!-- //typescript:devserver.MF&#45;&gt;//typescript:devserver_launcher.MF -->
<g id="edge9" class="edge">
<title>//typescript:devserver.MF&#45;&gt;//typescript:devserver_launcher.MF</title>
<path fill="none" stroke="black" d="M1284.5,-359.7C1284.5,-351.98 1284.5,-342.71 1284.5,-334.11"/>
<polygon fill="black" stroke="black" points="1288,-334.1 1284.5,-324.1 1281,-334.1 1288,-334.1"/>
</g>
<!-- //typescript:devserver_launcher -->
<g id="node12" class="node">
<title>//typescript:devserver_launcher</title>
<polygon fill="none" stroke="black" points="1487,-252 1244,-252 1244,-216 1487,-216 1487,-252"/>
<text text-anchor="middle" x="1365.5" y="-230.3" font-family="Times,serif" font-size="14.00">//typescript:devserver_launcher</text>
</g>
<!-- //typescript:devserver_launcher.MF&#45;&gt;//typescript:devserver_launcher -->
<g id="edge10" class="edge">
<title>//typescript:devserver_launcher.MF&#45;&gt;//typescript:devserver_launcher</title>
<path fill="none" stroke="black" d="M1304.52,-287.7C1314.63,-278.97 1327.04,-268.24 1338.02,-258.75"/>
<polygon fill="black" stroke="black" points="1340.43,-261.29 1345.71,-252.1 1335.85,-255.99 1340.43,-261.29"/>
</g>
<!-- //typescript:ts_app -->
<g id="node15" class="node">
<title>//typescript:ts_app</title>
<polygon fill="none" stroke="black" points="1294,-180 1145,-180 1145,-144 1294,-144 1294,-180"/>
<text text-anchor="middle" x="1219.5" y="-158.3" font-family="Times,serif" font-size="14.00">//typescript:ts_app</text>
</g>
<!-- //typescript:devserver_launcher&#45;&gt;//typescript:ts_app -->
<g id="edge14" class="edge">
<title>//typescript:devserver_launcher&#45;&gt;//typescript:ts_app</title>
<path fill="none" stroke="black" d="M1329.78,-215.88C1310,-206.39 1285.23,-194.51 1264.17,-184.42"/>
<polygon fill="black" stroke="black" points="1265.63,-181.24 1255.1,-180.07 1262.6,-187.55 1265.63,-181.24"/>
</g>
<!-- //typescript:devserver -->
<g id="node13" class="node">
<title>//typescript:devserver</title>
<polygon fill="none" stroke="black" points="1635.5,-396 1461.5,-396 1461.5,-360 1635.5,-360 1635.5,-396"/>
<text text-anchor="middle" x="1548.5" y="-374.3" font-family="Times,serif" font-size="14.00">//typescript:devserver</text>
</g>
<!-- //typescript:devserver&#45;&gt;//typescript:devserver_launcher -->
<g id="edge11" class="edge">
<title>//typescript:devserver&#45;&gt;//typescript:devserver_launcher</title>
<path fill="none" stroke="black" d="M1519.97,-359.95C1504.08,-350.07 1484.2,-337.02 1467.5,-324 1448.9,-309.49 1446.2,-303.6 1428.5,-288 1417.48,-278.29 1405.15,-267.83 1394.34,-258.79"/>
<polygon fill="black" stroke="black" points="1396.34,-255.9 1386.42,-252.19 1391.86,-261.28 1396.34,-255.9"/>
</g>
<!-- //typescript:devserver_launcher.sh -->
<g id="node14" class="node">
<title>//typescript:devserver_launcher.sh</title>
<polygon fill="none" stroke="black" points="1739,-324 1476,-324 1476,-288 1739,-288 1739,-324"/>
<text text-anchor="middle" x="1607.5" y="-302.3" font-family="Times,serif" font-size="14.00">//typescript:devserver_launcher.sh</text>
</g>
<!-- //typescript:devserver&#45;&gt;//typescript:devserver_launcher.sh -->
<g id="edge12" class="edge">
<title>//typescript:devserver&#45;&gt;//typescript:devserver_launcher.sh</title>
<path fill="none" stroke="black" d="M1563.08,-359.7C1570.16,-351.3 1578.78,-341.07 1586.55,-331.86"/>
<polygon fill="black" stroke="black" points="1589.31,-334.01 1593.08,-324.1 1583.96,-329.49 1589.31,-334.01"/>
</g>
<!-- //typescript:devserver_launcher.sh&#45;&gt;//typescript:devserver_launcher -->
<g id="edge13" class="edge">
<title>//typescript:devserver_launcher.sh&#45;&gt;//typescript:devserver_launcher</title>
<path fill="none" stroke="black" d="M1548.61,-287.97C1514.21,-278.01 1470.62,-265.41 1434.6,-254.99"/>
<polygon fill="black" stroke="black" points="1435.23,-251.53 1424.65,-252.11 1433.29,-258.25 1435.23,-251.53"/>
</g>
<!-- //:tsconfig.json -->
<g id="node16" class="node">
<title>//:tsconfig.json</title>
<polygon fill="none" stroke="black" points="1086.5,-108 966.5,-108 966.5,-72 1086.5,-72 1086.5,-108"/>
<text text-anchor="middle" x="1026.5" y="-86.3" font-family="Times,serif" font-size="14.00">//:tsconfig.json</text>
</g>
<!-- //typescript:ts_app&#45;&gt;//:tsconfig.json -->
<g id="edge15" class="edge">
<title>//typescript:ts_app&#45;&gt;//:tsconfig.json</title>
<path fill="none" stroke="black" d="M1172.29,-143.88C1145.43,-134.14 1111.62,-121.87 1083.32,-111.61"/>
<polygon fill="black" stroke="black" points="1084.15,-108.19 1073.56,-108.07 1081.77,-114.77 1084.15,-108.19"/>
</g>
<!-- //proto/logger:logger_ts_proto -->
<g id="node17" class="node">
<title>//proto/logger:logger_ts_proto</title>
<polygon fill="none" stroke="black" points="1334.5,-108 1104.5,-108 1104.5,-72 1334.5,-72 1334.5,-108"/>
<text text-anchor="middle" x="1219.5" y="-86.3" font-family="Times,serif" font-size="14.00">//proto/logger:logger_ts_proto</text>
</g>
<!-- //typescript:ts_app&#45;&gt;//proto/logger:logger_ts_proto -->
<g id="edge16" class="edge">
<title>//typescript:ts_app&#45;&gt;//proto/logger:logger_ts_proto</title>
<path fill="none" stroke="black" d="M1219.5,-143.7C1219.5,-135.98 1219.5,-126.71 1219.5,-118.11"/>
<polygon fill="black" stroke="black" points="1223,-118.1 1219.5,-108.1 1216,-118.1 1223,-118.1"/>
</g>
<!-- //proto/logger:logger_ts_proto&#45;&gt;//proto/logger:logger_proto -->
<g id="edge17" class="edge">
<title>//proto/logger:logger_ts_proto&#45;&gt;//proto/logger:logger_proto</title>
<path fill="none" stroke="black" d="M1104.33,-73.11C1101.36,-72.73 1098.41,-72.36 1095.5,-72 972.89,-56.74 832.17,-41.26 736.11,-31.01"/>
<polygon fill="black" stroke="black" points="736.4,-27.52 726.08,-29.94 735.65,-34.48 736.4,-27.52"/>
</g>
<!-- //proto/logger:logger_java_grpc&#45;&gt;//proto/logger:logger_proto -->
<g id="edge22" class="edge">
<title>//proto/logger:logger_java_grpc&#45;&gt;//proto/logger:logger_proto</title>
<path fill="none" stroke="black" d="M549.46,-143.9C550.1,-125.17 553.19,-94.79 565.5,-72 571.47,-60.96 580.57,-50.9 589.72,-42.58"/>
<polygon fill="black" stroke="black" points="592.05,-45.19 597.34,-36.02 587.48,-39.89 592.05,-45.19"/>
</g>
<!-- //proto/logger:logger_java_grpc&#45;&gt;//proto/logger:logger_java_proto -->
<g id="edge21" class="edge">
<title>//proto/logger:logger_java_grpc&#45;&gt;//proto/logger:logger_java_proto</title>
<path fill="none" stroke="black" d="M585.7,-143.88C605.76,-134.39 630.87,-122.51 652.21,-112.42"/>
<polygon fill="black" stroke="black" points="653.87,-115.51 661.41,-108.07 650.88,-109.18 653.87,-115.51"/>
</g>
<!-- //proto/logger:logger_java_proto&#45;&gt;//proto/logger:logger_proto -->
<g id="edge23" class="edge">
<title>//proto/logger:logger_java_proto&#45;&gt;//proto/logger:logger_proto</title>
<path fill="none" stroke="black" d="M678.71,-71.7C669.33,-63.05 657.82,-52.45 647.59,-43.03"/>
<polygon fill="black" stroke="black" points="649.8,-40.3 640.07,-36.1 645.05,-45.45 649.8,-40.3"/>
</g>
</g>
</svg>
